#!OML:ASF H:\Punching\Project 1\Capture day 1\Session 1\female.ASF
:FULLY-SPECIFIED
:DEGREES
3061
root 1.66599 14.8582 3.23125 1.49252 -23.504 -0.940406
lowerback -2.43415 -1.72366 5.07264
upperback -6.12638 -2.36619 -1.36014
thorax -5.2728 -1.48395 -4.20023
lowerneck -7.39417 9.59402 14.6353
upperneck 42.659 14.8727 -8.88272
head 19.8374 7.15396 -4.17286
rclavicle -3.67752e-014 -1.64991e-014
rhumerus 9.69945 22.4983 -48.721
rradius 123.289
rwrist -18.0047
rhand -29.1909 6.7445
rfingers 7.12502
rthumb -2.5361 -23.2202
lclavicle -3.67752e-014 -1.64991e-014
lhumerus -14.064 -12.667 61.3835
lradius 137.497
lwrist 4.45614
lhand -26.3655 4.02371
lfingers 7.12502
lthumb 0.192743 34.0034
rfemur -30.0463 6.75473 28.4194
rtibia 47.139
rfoot -14.0234 -8.57652
rtoes 8.6929
lfemur -40.8814 13.4386 -14.7816
ltibia 111.76
lfoot -166.069 166.86
ltoes -16.3171
3062
root 1.64385 14.886 3.28193 0.865869 -24.3837 -0.891575
lowerback -2.21556 -1.46602 5.51798
upperback -5.7673 -2.02185 -1.69004
thorax -5.01295 -1.32571 -4.80765
lowerneck -7.12289 9.63522 14.7855
upperneck 42.6652 14.8823 -8.78251
head 19.7732 7.19857 -4.15806
rclavicle 4.03036e-014 -1.59028e-015
rhumerus 9.82865 23.0744 -49.7677
rradius 123.379
rwrist -18.2264
rhand -29.1001 6.88679
rfingers 7.12502
rthumb -2.44841 -23.0789
lclavicle 4.03036e-014 -1.59028e-015
lhumerus -14.066 -12.3439 60.8869
lradius 137.725
lwrist 4.37783
lhand -26.4085 4.29135
lfingers 7.12502
lthumb 0.151184 34.271
rfemur -28.7718 7.18995 28.5596
rtibia 46.4579
rfoot -13.9044 -8.35498
rtoes 8.76843
lfemur -44.6735 14.0735 -15.4929
ltibia 114.512
lfoot -164.912 166.127
ltoes -15.9738
3063
root 1.62333 14.9089 3.33311 0.194562 -25.2673 -0.836752
lowerback -1.96226 -1.21564 5.97778
upperback -5.39331 -1.68357 -2.01655
thorax -4.74997 -1.16702 -5.42083
lowerneck -6.85582 9.68071 14.9444
upperneck 42.6584 14.8999 -8.6918
head 19.7064 7.24637 -4.14711
rclavicle -3.32467e-014 -2.54444e-014
rhumerus 9.98714 23.6361 -50.8335
rradius 123.463
rwrist -18.3838
rhand -28.999 7.01389
rfingers 7.12502
rthumb -2.3507 -22.9529
lclavicle -3.32467e-014 -2.54444e-014
lhumerus -14.0304 -12.0128 60.3941
lradius 137.962
lwrist 4.38429
lhand -26.4582 4.45665
lfingers 7.12502
lthumb 0.103195 34.4364
rfemur -27.498 7.61973 28.7056
rtibia 45.8617
rfoot -13.82 -8.14773
rtoes 8.84734
lfemur -48.4855 14.6159 -16.2725
ltibia 116.979
lfoot -163.831 165.627
ltoes -15.5504
3064
root 1.60384 14.9269 3.38518 -0.538992 -26.1637 -0.76181
lowerback -1.66587 -0.977421 6.4312
upperback -5.0032 -1.35708 -2.33712
thorax -4.48719 -1.00965 -6.0255
lowerneck -6.58896 9.73338 15.1111
upperneck 42.6386 14.9339 -8.6173
head 19.6386 7.2998 -4.14171
rclavicle 4.96962e-015 1.43125e-014
rhumerus 10.1826 24.201 -51.9116
rradius 123.514
rwrist -18.389
rhand -28.9369 7.15928
rfingers 7.12502
rthumb -2.29082 -22.8082
lclavicle 4.96962e-015 1.43125e-014
lhumerus -13.9795 -11.6569 59.9002
lradius 138.217
lwrist 4.46791
lhand -26.5036 4.55268
lfingers 7.12502
lthumb 0.0593823 34.5324
rfemur -26.2117 8.05506 28.848
rtibia 45.3555
rfoot -13.7793 -7.96049
rtoes 8.9369
lfemur -52.2744 15.0527 -17.1121
ltibia 119.143
lfoot -162.841 165.447
ltoes -15.0308
3065
root 1.58481 14.9402 3.43867 -1.35143 -27.0833 -0.648123
lowerback -1.32436 -0.748782 6.86292
upperback -4.59679 -1.03878 -2.65718
thorax -4.22509 -0.851323 -6.61932
lowerneck -6.31723 9.79241 15.289
upperneck 42.6071 14.9832 -8.5599
head 19.5698 7.35914 -4.1434
rclavicle 6.33129e-014 1.59028e-014
rhumerus 10.4077 24.7778 -52.9983
rradius 123.503
rwrist -18.1716
rhand -28.9419 7.33574
rfingers 7.12502
rthumb -2.29557 -22.6317
lclavicle 6.33129e-014 1.59028e-014
lhumerus -13.9228 -11.2687 59.4024
lradius 138.483
lwrist 4.62118
lhand -26.5361 4.54621
lfingers 7.12502
lthumb 0.0279392 34.5259
rfemur -24.9008 8.50265 28.9747
rtibia 44.9368
rfoot -13.7867 -7.79161
rtoes 9.04841
lfemur -56.0002 15.387 -18.0003
ltibia 120.992
lfoot -161.956 165.619
ltoes -14.4644
3066
root 1.56566 14.9489 3.4938 -2.25305 -28.0358 -0.487367
lowerback -0.925714 -0.534143 7.25636
upperback -4.17995 -0.733487 -2.97204
thorax -3.97744 -0.694654 -7.18796
lowerneck -6.03654 9.86249 15.4853
upperneck 42.567 15.0577 -8.52612
head 19.5052 7.42878 -4.15488
rclavicle 3.20043e-014 1.47101e-014
rhumerus 10.6669 25.3854 -54.0923
rradius 123.422
rwrist -17.7371
rhand -29.0265 7.53936
rfingers 7.12502
rthumb -2.37732 -22.4271
lclavicle 3.20043e-014 1.47101e-014
lhumerus -13.8924 -10.8515 58.9007
lradius 138.776
lwrist 4.78192
lhand -26.5589 4.55281
lfingers 7.12502
lthumb 0.00595726 34.5326
rfemur -23.5537 8.97092 29.0851
rtibia 44.5971
rfoot -13.8431 -7.64274
rtoes 9.16096
lfemur -59.6351 15.6323 -18.909
ltibia 122.518
lfoot -161.171 166.137
ltoes -13.908
3067
root 1.54581 14.9531 3.55098 -3.23986 -29.0311 -0.285262
lowerback -0.474493 -0.332711 7.61524
upperback -3.75759 -0.440026 -3.27637
thorax -3.74753 -0.539829 -7.72844
lowerneck -5.73545 9.9446 15.6932
upperneck 42.5176 15.1608 -8.51302
head 19.4407 7.50971 -4.17327
rclavicle 3.15074e-014 2.78299e-014
rhumerus 10.96 26.0302 -55.1786
rradius 123.283
rwrist -17.1497
rhand -29.18 7.76981
rfingers 7.12502
rthumb -2.52552 -22.195
lclavicle 3.15074e-014 2.78299e-014
lhumerus -13.9074 -10.3964 58.3941
lradius 139.092
lwrist 4.9177
lhand -26.5628 4.57878
lfingers 7.12502
lthumb 0.00213141 34.5585
rfemur -22.1632 9.46884 29.1919
rtibia 44.3238
rfoot -13.9475 -7.51142
rtoes 9.26205
lfemur -63.1708 15.8223 -19.7928
ltibia 123.724
lfoot -160.429 166.955
ltoes -13.2874
